# Alias OBJ Model File
# Exported from SketchUp, (c) 2000-2006 Google, Inc.
# File units = inches

mtllib star.mtl

g Mesh1 Model

usemtl _0046_Gold_
v 2.74347 0.651348 0.891406
vt 2.71115 1.18116
vn -0.0341843 -0.75391 0.656088
v 0.565185 0.651348 0.777911
vt 0.535102 1.03078
v 0 0 0
vt 0 0
f 1/1/1 2/2/1 3/3/1

vt -0.594109 0.176971
vn -0.0341843 0.75391 0.656088
vt -2.77015 0.327359
v 0 1.3027 0
vt -0.0590072 -0.853806
f 2/4/2 1/5/2 4/6/2

vt -2.19888 1.71634
vn 0.357983 0.75391 -0.550879
v 0.914489 0.651348 -0.297135
vt -0.546704 0.292231
vt 0.558772 0.648259
f 1/7/3 5/8/3 4/9/3

vt 1.10548 -0.356028
vn 0.357983 -0.75391 -0.550879
vt 2.75766 1.06808
f 5/10/4 1/11/4 3/3/4

v 1.69556 0.651348 -2.33373
vt 1.72629 -2.40112
vn 0.613413 -0.75391 0.235254
vt 1.12043 -0.305716
f 6/12/5 5/13/5 3/3/5

vt -0.298268 -0.543434
vn 0.613413 0.75391 0.235254
vt -0.904126 -2.63884
vt 0.822166 -0.237718
f 5/14/6 6/15/6 4/16/6

vt -1.79991 -2.13102
vn -0.413295 0.75391 -0.510693
v -3.55271e-15 0.651348 -0.961551
vt -0.313108 -0.535021
vt -0.626216 0.583369
f 6/17/7 7/18/7 4/19/7

vt -0.313108 -1.11839
vn -0.413295 -0.75391 -0.510693
vt 1.17369 -2.71439
f 7/20/8 6/21/8 3/3/8

v -1.69556 0.651348 -2.33373
vt -1.17369 -2.71439
vn 0.413295 -0.75391 -0.510693
vt 0.313108 -1.11839
f 8/22/9 7/23/9 3/3/9

vt 0.313108 -0.535021
vn 0.413295 0.75391 -0.510693
vt 1.79991 -2.13102
vt 0.626216 0.583369
f 7/24/10 8/25/10 4/26/10

vt 0.904126 -2.63884
vn -0.613413 0.75391 0.235254
v -0.914489 0.651348 -0.297135
vt 0.298268 -0.543434
vt -0.822166 -0.237718
f 8/27/11 9/28/11 4/29/11

vt -1.12043 -0.305716
vn -0.613413 -0.75391 0.235254
vt -1.72629 -2.40112
f 9/30/12 8/31/12 3/3/12

v -2.74347 0.651348 0.891406
vt -2.75766 1.06808
vn -0.357983 -0.75391 -0.550879
vt -1.10548 -0.356028
f 10/32/13 9/33/13 3/3/13

vt 0.546704 0.292231
vn -0.357983 0.75391 -0.550879
vt 2.19888 1.71634
vt -0.558772 0.648259
f 9/34/14 10/35/14 4/36/14

vt 2.77015 0.327359
vn 0.0341843 0.75391 0.656088
v -0.565185 0.651348 0.777911
vt 0.594109 0.176971
vt 0.0590072 -0.853806
f 10/37/15 11/38/15 4/39/15

vt -0.535102 1.03078
vn 0.0341843 -0.75391 0.656088
vt -2.71115 1.18116
f 11/40/16 10/41/16 3/3/16

v -3.55271e-15 0.651348 2.88465
vt -0.419428 2.92738
vn -0.63454 -0.75391 0.170231
vt -0.851838 0.789433
f 12/42/17 11/43/17 3/3/17

vt 0.0129818 0.61977
vn -0.63454 0.75391 0.170231
vt -0.419428 2.75772
vt -0.838857 -0.169663
f 11/44/18 12/45/18 4/46/18

vt 0.419428 2.75772
vn 0.63454 0.75391 0.170231
vt -0.0129818 0.61977
vt 0.838857 -0.169663
f 12/47/19 2/48/19 4/49/19

vt 0.851838 0.789433
vn 0.63454 -0.75391 0.170231
vt 0.419428 2.92738
f 2/50/20 12/51/20 3/3/20

