# Alias OBJ Model File
# Exported from SketchUp, (c) 2000-2006 Google, Inc.
# File units = meters

mtllib flag_ufo.mtl

g Mesh1 Model

usemtl FrontColor
v 0.3 3.04556e-16 -0.3
vt -1.54165 -6.29104
vn 0.919145 -1.18123e-15 -0.393919
v -1.04339e-16 6.09113e-16 -1
vt 2.45339e-14 -36.2347
vn -9.46321e-17 3.99229e-17 -1
v 0.289778 0.0776457 -0.3
vt 1.54165 -6.29104
vn 0.887826 0.237892 -0.393919
f 1/1/1 2/2/2 3/3/3

v 0.289778 -0.0776457 -0.3
vt -1.54165 -6.29104
vn 0.887826 -0.237892 -0.393919
vt 2.34615e-14 -36.2347
vn 7.0974e-17 1.34555e-16 -1
vt 1.54165 -6.29104
f 4/4/4 2/5/5 1/6/1

v 0.259808 -0.15 -0.3
vt -1.54165 -6.29104
vn 0.796003 -0.459573 -0.393919
vt 2.05834e-14 -36.2347
vn 7.0974e-17 1.00547e-16 -1
vt 1.54165 -6.29104
f 5/7/6 2/8/7 4/9/4

v 0.212132 -0.212132 -0.3
vt -1.54165 -6.29104
vn 0.649934 -0.649934 -0.393919
vt 1.65246e-14 -36.2347
vn 7.0974e-17 5.9145e-17 -1
vt 1.54165 -6.29104
f 6/10/8 2/11/9 5/12/6

v 0.15 -0.259808 -0.3
vt -1.54165 -6.29104
vn 0.459573 -0.796003 -0.393919
vt 1.13396e-14 -36.2347
vn 1.1829e-17 8.28031e-17 -1
vt 1.54165 -6.29104
f 7/13/10 2/14/11 6/15/8

v 0.0776457 -0.289778 -0.3
vt -1.54165 -6.29104
vn 0.237892 -0.887826 -0.393919
vt 4.49375e-15 -36.2347
vn 8.87176e-17 1.41948e-16 -1
vt 1.54165 -6.29104
f 8/16/12 2/17/13 7/18/10

v 4.06075e-16 -0.3 -0.3
vt -1.54165 -6.29104
vn -1.01348e-15 -0.919145 -0.393919
vt -1.1646e-15 -36.2347
vn 1.22726e-16 0 -1
vt 1.54165 -6.29104
f 9/19/14 2/20/15 8/21/12

v -0.0776457 -0.289778 -0.3
vt -1.54165 -6.29104
vn -0.237892 -0.887826 -0.393919
vt -7.20281e-15 -36.2347
vn 1.72999e-16 -2.3658e-17 -1
vt 1.54165 -6.29104
f 10/22/16 2/23/17 9/24/14

v -0.15 -0.259808 -0.3
vt -1.54165 -6.29104
vn -0.459573 -0.796003 -0.393919
vt -1.29722e-14 -36.2347
vn 1.47863e-16 8.28031e-17 -1
vt 1.54165 -6.29104
f 11/25/18 2/26/19 10/27/16

v -0.212132 -0.212132 -0.3
vt -1.54165 -6.29104
vn -0.649934 -0.649934 -0.393919
vt -1.87457e-14 -36.2347
vn -2.3658e-17 -3.5487e-17 -1
vt 1.54165 -6.29104
f 12/28/20 2/29/21 11/30/18

v -0.259808 -0.15 -0.3
vt -1.54165 -6.29104
vn -0.796003 -0.459573 -0.393919
vt -2.15259e-14 -36.2347
vn 1.53777e-16 5.9145e-17 -1
vt 1.54165 -6.29104
f 13/31/22 2/32/23 12/33/20

v -0.289778 -0.0776457 -0.3
vt -1.54165 -6.29104
vn -0.887826 -0.237892 -0.393919
vt -2.37274e-14 -36.2347
vn 1.30119e-16 1.77435e-17 -1
vt 1.54165 -6.29104
f 14/34/24 2/35/25 13/36/22

v -0.3 -2.93277e-16 -0.3
vt -1.54165 -6.29104
vn -0.919145 1.25811e-15 -0.393919
vt -2.40898e-14 -36.2347
vn 2.3658e-17 1.00547e-16 -1
vt 1.54165 -6.29104
f 15/37/26 2/38/27 14/39/24

v -0.289778 0.0776457 -0.3
vt -1.54165 -6.29104
vn -0.887826 0.237892 -0.393919
vt -2.36836e-14 -36.2347
vn 4.7316e-17 1.6117e-16 -1
vt 1.54165 -6.29104
f 16/40/28 2/41/29 15/42/26

v -0.259808 0.15 -0.3
vt -1.54165 -6.29104
vn -0.796003 0.459573 -0.393919
vt -2.05834e-14 -36.2347
vn -1.06461e-16 2.3658e-17 -1
vt 1.54165 -6.29104
f 17/43/30 2/44/31 16/45/28

v -0.212132 0.212132 -0.3
vt -1.54165 -6.29104
vn -0.649934 0.649934 -0.393919
vt -1.83009e-14 -36.2347
vn -7.0974e-17 3.5487e-17 -1
vt 1.54165 -6.29104
f 18/46/32 2/47/33 17/48/30

v -0.15 0.259808 -0.3
vt -1.54165 -6.29104
vn -0.459573 0.796003 -0.393919
vt -1.22278e-14 -36.2347
vn 3.5487e-17 1.1829e-17 -1
vt 1.54165 -6.29104
f 19/49/34 2/50/35 18/51/32

v -0.0776457 0.289778 -0.3
vt -1.54165 -6.29104
vn -0.237892 0.887826 -0.393919
vt -4.49375e-15 -36.2347
vn -4.7316e-17 1.30119e-16 -1
f 20/52/36 2/53/37 19/18/34

v -3.15836e-16 0.3 -0.3
vt -1.54165 -6.29104
vn 1.17424e-15 0.919145 -0.393919
vt 9.42557e-16 -36.2347
vn 4.7316e-17 -1.1829e-17 -1
vt 1.54165 -6.29104
f 21/54/38 2/55/39 20/56/36

v 0.0776457 0.289778 -0.3
vt -1.54165 -6.29104
vn 0.237892 0.887826 -0.393919
vt 7.42485e-15 -36.2347
vn 9.31534e-17 -8.28031e-17 -1
vt 1.54165 -6.29104
f 22/57/40 2/58/41 21/59/38

v 0.15 0.259808 -0.3
vt -1.54165 -6.29104
vn 0.459573 0.796003 -0.393919
vt 1.29722e-14 -36.2347
vn -1.1829e-17 -1.1829e-17 -1
vt 1.54165 -6.29104
f 23/60/42 2/61/43 22/62/40

v 0.212132 0.212132 -0.3
vt -1.54165 -6.29104
vn 0.649934 0.649934 -0.393919
vt 1.78576e-14 -36.2347
vn 9.46321e-17 5.9145e-17 -1
vt 1.54165 -6.29104
f 24/63/44 2/64/45 23/65/42

v 0.259808 0.15 -0.3
vt -1.54165 -6.29104
vn 0.796003 0.459573 -0.393919
vt 2.15259e-14 -36.2347
vn -4.7316e-17 5.9145e-17 -1
vt 1.54165 -6.29104
f 25/66/46 2/67/47 24/68/44

vt -1.54165 -6.29104
vt 2.37274e-14 -36.2347
vn -1.1829e-17 1.47863e-16 -1
vt 1.54165 -6.29104
f 3/69/3 2/70/48 25/71/46

v 0.965926 0.258819 0
vt -5.13883 35.8291
vn 0.380497 0.101954 -0.919145
vt -1.54165 6.06228
vt 1.54165 6.06228
vn 0.341144 0.19696 -0.919145
v 0.866025 0.5 0
vt 5.13883 35.8291
f 26/72/49 3/73/49 25/74/50 27/75/50 

v 1 -4.3642e-16 3.67724e-15
vt -5.13883 35.8291
vn 0.393919 -3.02248e-16 -0.919145
vt -1.54165 6.06228
vt 1.54165 6.06228
vt 5.13883 35.8291
f 28/76/51 1/77/51 3/78/49 26/79/49 

v 0.965926 -0.258819 0
vt -5.13883 35.8291
vn 0.380497 -0.101954 -0.919145
vt -1.54165 6.06228
vt 1.54165 6.06228
vt 5.13883 35.8291
f 29/80/52 4/81/52 1/82/51 28/83/51 

v 0.866025 -0.5 0
vt -5.13883 35.8291
vn 0.341144 -0.19696 -0.919145
vt -1.54165 6.06228
vt 1.54165 6.06228
vt 5.13883 35.8291
f 30/84/53 5/85/53 4/86/52 29/87/52 

v 0.707107 -0.707107 0
vt -5.13883 35.8291
vn 0.278543 -0.278543 -0.919145
vt -1.54165 6.06228
vt 1.54165 6.06228
vt 5.13883 35.8291
f 31/88/54 6/89/54 5/90/53 30/91/53 

v 0.5 -0.866025 0
vt -5.13883 35.8291
vn 0.19696 -0.341144 -0.919145
vt -1.54165 6.06228
vt 1.54165 6.06228
vt 5.13883 35.8291
f 32/92/55 7/93/55 6/94/54 31/95/54 

v 0.258819 -0.965926 0
vt -5.13883 35.8291
vn 0.101954 -0.380497 -0.919145
vt -1.54165 6.06228
vt 1.54165 6.06228
vt 5.13883 35.8291
f 33/96/56 8/97/56 7/98/55 32/99/55 

v -6.20117e-16 -1 0
vt -5.13883 35.8291
vn -4.4816e-16 -0.393919 -0.919145
vt -1.54165 6.06228
vt 1.54165 6.06228
vt 5.13883 35.8291
f 34/100/57 9/101/57 8/102/56 33/103/56 

v -0.258819 -0.965926 0
vt -5.13883 35.8291
vn -0.101954 -0.380497 -0.919145
vt -1.54165 6.06228
vt 1.54165 6.06228
vt 5.13883 35.8291
f 35/104/58 10/105/58 9/106/57 34/107/57 

v -0.5 -0.866025 0
vt -5.13883 35.8291
vn -0.19696 -0.341144 -0.919145
vt -1.54165 6.06228
vt 1.54165 6.06228
vt 5.13883 35.8291
f 36/108/59 11/109/59 10/110/58 35/111/58 

v -0.707107 -0.707107 0
vt -5.13883 35.8291
vn -0.278543 -0.278543 -0.919145
vt -1.54165 6.06228
vt 1.54165 6.06228
vt 5.13883 35.8291
f 37/112/60 12/113/60 11/114/59 36/115/59 

v -0.866025 -0.5 0
vt -5.13883 35.8291
vn -0.341144 -0.19696 -0.919145
vt -1.54165 6.06228
vt 1.54165 6.06228
vt 5.13883 35.8291
f 38/116/61 13/117/61 12/118/60 37/119/60 

v -0.965926 -0.258819 0
vt -5.13883 35.8291
vn -0.380497 -0.101954 -0.919145
vt -1.54165 6.06228
vt 1.54165 6.06228
vt 5.13883 35.8291
f 39/120/62 14/121/62 13/122/61 38/123/61 

v -1 5.58884e-16 0
vt -5.13883 35.8291
vn -0.393919 5.48909e-16 -0.919145
vt -1.54165 6.06228
vt 1.54165 6.06228
vt 5.13883 35.8291
f 40/124/63 15/125/63 14/126/62 39/127/62 

v -0.965926 0.258819 0
vt -5.13883 35.8291
vn -0.380497 0.101954 -0.919145
vt -1.54165 6.06228
vt 1.54165 6.06228
vt 5.13883 35.8291
f 41/128/64 16/129/64 15/130/63 40/131/63 

v -0.866025 0.5 0
vt -5.13883 35.8291
vn -0.341144 0.19696 -0.919145
vt -1.54165 6.06228
vt 1.54165 6.06228
vt 5.13883 35.8291
f 42/132/65 17/133/65 16/134/64 41/135/64 

v -0.707107 0.707107 0
vt -5.13883 35.8291
vn -0.278543 0.278543 -0.919145
vt -1.54165 6.06228
vt 1.54165 6.06228
vt 5.13883 35.8291
f 43/136/66 18/137/66 17/138/65 42/139/65 

v -0.5 0.866025 0
vt -5.13883 35.8291
vn -0.19696 0.341144 -0.919145
vt -1.54165 6.06228
vt 1.54165 6.06228
vt 5.13883 35.8291
f 44/140/67 19/141/67 18/142/66 43/143/66 

v -0.258819 0.965926 0
vt -5.13883 35.8291
vn -0.101954 0.380497 -0.919145
vt -1.54165 6.06228
vt 1.54165 6.06228
vt 5.13883 35.8291
f 45/144/68 20/145/68 19/146/67 44/147/67 

v 4.97652e-16 1 0
vn 4.13419e-16 0.393919 -0.919145
vt -1.54165 6.06228
vt 1.54165 6.06228
vt 5.13883 35.8291
f 46/128/69 21/148/69 20/149/68 45/150/68 

v 0.258819 0.965926 0
vt -5.13883 35.8291
vn 0.101954 0.380497 -0.919145
vt -1.54165 6.06228
vt 1.54165 6.06228
vt 5.13883 35.8291
f 47/151/70 22/152/70 21/153/69 46/154/69 

v 0.5 0.866025 0
vt -5.13883 35.8291
vn 0.19696 0.341144 -0.919145
vt -1.54165 6.06228
vt 1.54165 6.06228
f 48/155/71 23/156/71 22/157/70 47/95/70 

v 0.707107 0.707107 0
vn 0.278543 0.278543 -0.919145
vt -1.54165 6.06228
vt 1.54165 6.06228
vt 5.13883 35.8291
f 49/136/72 24/158/72 23/159/71 48/160/71 

vt -5.13883 35.8291
vt -1.54165 6.06228
vt 1.54165 6.06228
vt 5.13883 35.8291
f 27/161/50 25/162/50 24/163/72 49/164/72 

v 0.259808 0.15 0.3
vt -1.54165 -6.06228
vn 0.341144 0.19696 0.919145
vt -5.13883 -35.8291
vt 5.13883 -35.8291
vn 0.278543 0.278543 0.919145
v 0.212132 0.212132 0.3
vt 1.54165 -6.06228
f 50/165/73 27/166/73 49/167/74 51/168/74 

v 0.289778 0.0776457 0.3
vt -1.54165 -6.06228
vn 0.380497 0.101954 0.919145
vt -5.13883 -35.8291
vt 5.13883 -35.8291
vt 1.54165 -6.06228
f 52/169/75 26/170/75 27/171/73 50/172/73 

v 0.3 2.93277e-16 0.3
vt -1.54165 -6.06228
vn 0.393919 -4.20367e-16 0.919145
vt -5.13883 -35.8291
vt 5.13883 -35.8291
vt 1.54165 -6.06228
f 53/173/76 28/174/76 26/175/75 52/176/75 

v 0.289778 -0.0776457 0.3
vt -1.54165 -6.06228
vn 0.380497 -0.101954 0.919145
vt -5.13883 -35.8291
vt 5.13883 -35.8291
vt 1.54165 -6.06228
f 54/177/77 29/178/77 28/179/76 53/180/76 

v 0.259808 -0.15 0.3
vt -1.54165 -6.06228
vn 0.341144 -0.19696 0.919145
vt -5.13883 -35.8291
vt 5.13883 -35.8291
vt 1.54165 -6.06228
f 55/181/78 30/182/78 29/183/77 54/184/77 

v 0.212132 -0.212132 0.3
vt -1.54165 -6.06228
vn 0.278543 -0.278543 0.919145
vt -5.13883 -35.8291
vt 5.13883 -35.8291
vt 1.54165 -6.06228
f 56/185/79 31/186/79 30/187/78 55/188/78 

v 0.15 -0.259808 0.3
vt -1.54165 -6.06228
vn 0.19696 -0.341144 0.919145
vt -5.13883 -35.8291
vt 5.13883 -35.8291
vt 1.54165 -6.06228
f 57/189/80 32/190/80 31/191/79 56/192/79 

v 0.0776457 -0.289778 0.3
vt -1.54165 -6.06228
vn 0.101954 -0.380497 0.919145
vt -5.13883 -35.8291
vt 5.13883 -35.8291
vt 1.54165 -6.06228
f 58/193/81 33/194/81 32/195/80 57/196/80 

v 4.06075e-16 -0.3 0.3
vt -1.54165 -6.06228
vn -5.59332e-16 -0.393919 0.919145
vt -5.13883 -35.8291
vt 5.13883 -35.8291
vt 1.54165 -6.06228
f 59/197/82 34/198/82 33/199/81 58/200/81 

v -0.0776457 -0.289778 0.3
vt -1.54165 -6.06228
vn -0.101954 -0.380497 0.919145
vt -5.13883 -35.8291
vt 5.13883 -35.8291
vt 1.54165 -6.06228
f 60/201/83 35/202/83 34/203/82 59/204/82 

v -0.15 -0.259808 0.3
vt -1.54165 -6.06228
vn -0.19696 -0.341144 0.919145
vt -5.13883 -35.8291
vt 5.13883 -35.8291
vt 1.54165 -6.06228
f 61/205/84 36/206/84 35/207/83 60/208/83 

v -0.212132 -0.212132 0.3
vt -1.54165 -6.06228
vn -0.278543 -0.278543 0.919145
vt -5.13883 -35.8291
vt 5.13883 -35.8291
vt 1.54165 -6.06228
f 62/209/85 37/210/85 36/211/84 61/212/84 

v -0.259808 -0.15 0.3
vt -1.54165 -6.06228
vn -0.341144 -0.19696 0.919145
vt -5.13883 -35.8291
vt 5.13883 -35.8291
vt 1.54165 -6.06228
f 63/213/86 38/214/86 37/215/85 62/216/85 

v -0.289778 -0.0776457 0.3
vt -1.54165 -6.06228
vn -0.380497 -0.101954 0.919145
vt 1.54165 -6.06228
f 64/217/87 39/214/87 38/211/86 63/218/86 

v -0.3 -2.93277e-16 0.3
vt -1.54165 -6.06228
vn -0.393919 4.37738e-16 0.919145
vt -5.13883 -35.8291
vt 1.54165 -6.06228
f 65/219/88 40/220/88 39/211/87 64/221/87 

v -0.289778 0.0776457 0.3
vt -1.54165 -6.06228
vn -0.380497 0.101954 0.919145
vt -5.13883 -35.8291
vt 5.13883 -35.8291
vt 1.54165 -6.06228
f 66/222/89 41/223/89 40/224/88 65/225/88 

v -0.259808 0.15 0.3
vt -1.54165 -6.06228
vn -0.341144 0.19696 0.919145
vt 5.13883 -35.8291
vt 1.54165 -6.06228
f 67/226/90 42/198/90 41/227/89 66/228/89 

v -0.212132 0.212132 0.3
vt -1.54165 -6.06228
vn -0.278543 0.278543 0.919145
vt -5.13883 -35.8291
vt 5.13883 -35.8291
vt 1.54165 -6.06228
f 68/229/91 43/230/91 42/231/90 67/232/90 

v -0.15 0.259808 0.3
vt -1.54165 -6.06228
vn -0.19696 0.341144 0.919145
vt -5.13883 -35.8291
vt 5.13883 -35.8291
vt 1.54165 -6.06228
f 69/233/92 44/234/92 43/235/91 68/236/91 

v -0.0776457 0.289778 0.3
vt -1.54165 -6.06228
vn -0.101954 0.380497 0.919145
vt -5.13883 -35.8291
vt 5.13883 -35.8291
vt 1.54165 -6.06228
f 70/237/93 45/238/93 44/239/92 69/240/92 

v -3.15836e-16 0.3 0.3
vt -1.54165 -6.06228
vn 3.64781e-16 0.393919 0.919145
vt -5.13883 -35.8291
vt 5.13883 -35.8291
vt 1.54165 -6.06228
f 71/241/94 46/242/94 45/243/93 70/244/93 

v 0.0776457 0.289778 0.3
vt -1.54165 -6.06228
vn 0.101954 0.380497 0.919145
vt -5.13883 -35.8291
vt 5.13883 -35.8291
vt 1.54165 -6.06228
f 72/245/95 47/246/95 46/247/94 71/248/94 

v 0.15 0.259808 0.3
vt -1.54165 -6.06228
vn 0.19696 0.341144 0.919145
vt -5.13883 -35.8291
vt 5.13883 -35.8291
vt 1.54165 -6.06228
f 73/249/96 48/250/96 47/251/95 72/252/95 

vt -1.54165 -6.06228
vt -5.13883 -35.8291
vt 5.13883 -35.8291
vt 1.54165 -6.06228
f 51/253/74 49/254/74 48/255/96 73/256/96 

v -7.89591e-17 6.09113e-16 1
vt 1.61767e-14 36.2347
vn -7.45228e-16 -2.83896e-16 1
vt -1.54165 6.29104
vn 0.649934 0.649934 0.393919
vt 1.54165 6.29104
vn 0.459573 0.796003 0.393919
f 74/257/97 51/258/98 73/259/99

vt 2.09177e-14 36.2347
vn -7.68886e-16 -2.83896e-16 1
vt -1.54165 6.29104
vn 0.796003 0.459573 0.393919
vt 1.54165 6.29104
f 74/260/100 50/261/101 51/262/98

vt 2.42332e-14 36.2347
vn -8.3986e-16 -1.89264e-16 1
vt -1.54165 6.29104
vn 0.887826 0.237892 0.393919
vt 1.54165 6.29104
f 74/263/102 52/264/103 50/265/101

vt 2.41814e-14 36.2347
vn -7.2157e-16 -2.27708e-16 1
vt -1.54165 6.29104
vn 0.919145 -1.21618e-15 0.393919
vt 1.54165 6.29104
f 74/266/104 53/267/105 52/268/103

vt 2.35919e-14 36.2347
vn -8.63518e-16 -2.86853e-16 1
vt -1.54165 6.29104
vn 0.887826 -0.237892 0.393919
vt 1.54165 6.29104
f 74/269/106 54/270/107 53/271/105

vt 2.09658e-14 36.2347
vn -6.86082e-16 -1.59692e-16 1
vt -1.54165 6.29104
vn 0.796003 -0.459573 0.393919
vt 1.54165 6.29104
f 74/272/108 55/273/109 54/274/107

vt 1.62447e-14 36.2347
vn -8.16202e-16 -2.60238e-16 1
vt -1.54165 6.29104
vn 0.649934 -0.649934 0.393919
vt 1.54165 6.29104
f 74/275/110 56/276/111 55/277/109

vt 1.21324e-14 36.2347
vn -8.28031e-16 -2.60238e-16 1
vn 0.459573 -0.796003 0.393919
vt 1.54165 6.29104
f 74/278/112 57/261/113 56/279/111

vt 6.30507e-15 36.2347
vn -8.33945e-16 -2.72067e-16 1
vt -1.54165 6.29104
vn 0.237892 -0.887826 0.393919
vt 1.54165 6.29104
f 74/280/114 58/281/115 57/282/113

vt 4.8095e-17 36.2347
vn -8.08808e-16 -1.30119e-16 1
vt -1.54165 6.29104
vn -1.69845e-15 -0.919145 0.393919
vt 1.54165 6.29104
f 74/283/116 59/284/117 58/285/115

vt -6.21215e-15 36.2347
vn -8.05851e-16 -5.9145e-17 1
vn -0.237892 -0.887826 0.393919
vt 1.54165 6.29104
f 74/286/118 60/261/119 59/287/117

vt -1.20491e-14 36.2347
vn -8.28031e-16 -8.28031e-17 1
vt -1.54165 6.29104
vn -0.459573 -0.796003 0.393919
vt 1.54165 6.29104
f 74/288/120 61/289/121 60/290/119

vt -1.61767e-14 36.2347
vn -8.04373e-16 -1.41948e-16 1
vt -1.54165 6.29104
vn -0.649934 -0.649934 0.393919
vt 1.54165 6.29104
f 74/291/122 62/292/123 61/293/121

vt -2.00295e-14 36.2347
vn -8.28031e-16 -1.06461e-16 1
vt -1.54165 6.29104
vn -0.796003 -0.459573 0.393919
vt 1.54165 6.29104
f 74/294/124 63/295/125 62/296/123

vt -2.3345e-14 36.2347
vn -8.16202e-16 -1.65606e-16 1
vn -0.887826 -0.237892 0.393919
vt 1.54165 6.29104
f 74/297/126 64/281/127 63/298/125

vt -2.44035e-14 36.2347
vn -7.92544e-16 -2.02572e-16 1
vt -1.54165 6.29104
vn -0.919145 8.5971e-16 0.393919
vt 1.54165 6.29104
f 74/299/128 65/300/129 64/301/127

vt -2.35919e-14 36.2347
vn -7.92544e-16 -6.65382e-17 1
vt -1.54165 6.29104
vn -0.887826 0.237892 0.393919
vt 1.54165 6.29104
f 74/302/130 66/303/131 65/304/129

vt -2.09658e-14 36.2347
vn -8.3986e-16 -1.95179e-16 1
vt -1.54165 6.29104
vn -0.796003 0.459573 0.393919
vt 1.54165 6.29104
f 74/305/132 67/306/133 66/307/131

vt -1.8021e-14 36.2347
vn -8.16202e-16 -1.77435e-16 1
vt -1.54165 6.29104
vn -0.649934 0.649934 0.393919
vt 1.54165 6.29104
f 74/308/134 68/309/135 67/310/133

vt -1.12442e-14 36.2347
vn -7.92544e-16 -5.9145e-17 1
vt -1.54165 6.29104
vn -0.459573 0.796003 0.393919
vt 1.54165 6.29104
f 74/311/136 69/312/137 68/313/135

vt -6.30507e-15 36.2347
vn -7.92544e-16 -1.1829e-16 1
vt -1.54165 6.29104
vn -0.237892 0.887826 0.393919
vt 1.54165 6.29104
f 74/314/138 70/315/139 69/316/137

vt -2.7014e-16 36.2347
vn -7.12698e-16 -7.0974e-17 1
vt -1.54165 6.29104
vn 5.45182e-16 0.919145 0.393919
vt 1.54165 6.29104
f 74/317/140 71/318/141 70/319/139

vt 6.21215e-15 36.2347
vn -7.00869e-16 -5.9145e-17 1
vt -1.54165 6.29104
vn 0.237892 0.887826 0.393919
vt 1.54165 6.29104
f 74/320/142 72/321/143 71/322/141

vt 1.20491e-14 36.2347
vn -7.33399e-16 -1.53777e-16 1
vt -1.54165 6.29104
vt 1.54165 6.29104
f 74/323/144 73/324/99 72/325/143

